<?xml version="1.0" encoding="UTF-8"?>
<svg id="Layer_1" data-name="Layer 1" xmlns="http://www.w3.org/2000/svg" viewBox="0 0 82 119">
  <path d="m30.14,118l-8.14-46.76,19-43.24" fill="none" stroke="#000" stroke-width="4"/>
  <g>
    <path d="m57.29,55.73c1.61,3.39,2.58,6.65,2.85,9.17.14,1.26.09,2.31-.11,3.08-.2.78-.55,1.21-.96,1.39-.41.17-.98.14-1.73-.24-.75-.37-1.6-1.03-2.51-1.96-1.81-1.86-3.75-4.7-5.36-8.09-1.61-3.39-2.58-6.65-2.85-9.17-.14-1.26-.09-2.31.11-3.08.21-.78.55-1.21.96-1.38.41-.17.98-.13,1.73.24.75.37,1.6,1.03,2.51,1.96,1.81,1.86,3.75,4.7,5.36,8.09h0Zm-18.4,3.5c.47,3.58,1.44,6.84,2.6,9.21.58,1.19,1.2,2.12,1.81,2.76.61.64,1.16.93,1.63.97.47.03.96-.19,1.4-.76.45-.57.83-1.43,1.1-2.56.55-2.25.66-5.44.19-9.02-.47-3.58-1.44-6.84-2.6-9.21-.58-1.19-1.2-2.12-1.81-2.76-.61-.64-1.16-.94-1.63-.97-.47-.03-.96.19-1.4.76-.45.57-.83,1.43-1.1,2.56-.55,2.25-.66,5.44-.19,9.02h0Z" fill="#ff5f83" stroke="#9fd5ff"/>
    <path d="m63.65,49.34c2.68,2.72,4.7,5.51,5.81,7.82.56,1.15.87,2.16.94,2.96.07.8-.11,1.31-.43,1.59-.32.28-.86.42-1.71.3-.83-.12-1.87-.49-3.05-1.1-2.35-1.21-5.15-3.32-7.83-6.04-2.68-2.72-4.7-5.52-5.81-7.82-.56-1.15-.87-2.16-.94-2.96-.07-.8.11-1.31.43-1.59.32-.28.87-.42,1.71-.3.83.12,1.87.49,3.05,1.1,2.35,1.21,5.15,3.32,7.82,6.04h0Zm-33.93,6.04c-.83,3.3-1.04,6.45-.73,8.87.15,1.21.43,2.22.82,2.96.38.74.83,1.18,1.33,1.35.5.18,1.07.11,1.73-.25.66-.37,1.35-1.02,2.04-1.93,1.37-1.82,2.65-4.59,3.47-7.89.83-3.3,1.04-6.45.73-8.88-.15-1.21-.44-2.22-.81-2.96-.38-.74-.83-1.17-1.33-1.35-.49-.18-1.07-.11-1.73.25-.66.37-1.35,1.02-2.04,1.93-1.37,1.82-2.65,4.59-3.47,7.89Z" fill="#ff5f83" stroke="#9fd5ff"/>
    <path d="m67.14,40.19c3.57,1.56,6.56,3.42,8.51,5.16.98.87,1.67,1.69,2.06,2.4.39.72.42,1.25.24,1.62-.18.37-.62.69-1.45.88-.82.19-1.93.22-3.26.08-2.66-.28-6.09-1.23-9.66-2.79-3.57-1.56-6.56-3.42-8.51-5.16-.98-.87-1.67-1.69-2.06-2.4-.39-.72-.42-1.25-.24-1.62.18-.37.62-.69,1.45-.88.82-.19,1.93-.22,3.26-.08,2.66.28,6.09,1.23,9.66,2.79h0Zm-45.58,7.94c-2.25,2.52-3.82,5.13-4.55,7.29-.37,1.08-.52,2.03-.46,2.79.06.76.33,1.29.75,1.61.42.32,1.03.47,1.84.38.82-.08,1.79-.4,2.87-.94,2.16-1.07,4.62-2.99,6.87-5.51,2.25-2.52,3.82-5.13,4.56-7.29.37-1.08.52-2.03.46-2.79-.06-.76-.33-1.29-.75-1.61-.42-.33-1.03-.47-1.84-.38-.82.08-1.79.4-2.87.94-2.16,1.07-4.62,2.99-6.87,5.51h0Z" fill="#ff5f83" stroke="#9fd5ff"/>
    <path d="m67.07,30.9c3.92-.25,7.49.04,10.08.68,1.3.32,2.32.73,3.02,1.18.71.46.99.91,1.02,1.31.03.4-.19.88-.83,1.42-.63.54-1.59,1.07-2.83,1.55-2.48.96-5.98,1.68-9.9,1.93-3.92.24-7.49-.04-10.08-.68-1.3-.32-2.32-.73-3.02-1.18-.71-.46-.99-.91-1.02-1.31-.03-.4.19-.88.83-1.42.63-.54,1.59-1.07,2.83-1.55,2.48-.96,5.97-1.68,9.9-1.93h0Zm-50.59,8.76c-3.57,1-6.53,2.36-8.44,3.75-.95.69-1.62,1.38-1.98,2.01-.36.63-.37,1.14-.16,1.54.21.4.7.77,1.55,1.06.85.29,1.98.47,3.33.52,2.7.1,6.16-.33,9.73-1.33,3.57-1,6.53-2.36,8.44-3.75.95-.69,1.62-1.38,1.98-2,.36-.63.37-1.14.16-1.54-.21-.4-.7-.77-1.55-1.06-.84-.29-1.98-.47-3.33-.52-2.7-.1-6.16.33-9.73,1.33h0Z" fill="#ff5f83" stroke="#9fd5ff"/>
    <path d="m64.19,22.62c3.76-1.09,7.3-1.59,9.97-1.53,1.34.03,2.43.2,3.22.49.8.29,1.19.67,1.31,1.05.12.38.02.9-.46,1.57-.48.66-1.29,1.38-2.38,2.12-2.18,1.47-5.41,2.93-9.17,4.02-3.76,1.09-7.3,1.59-9.97,1.53-1.34-.03-2.44-.2-3.22-.49-.8-.29-1.19-.67-1.31-1.05-.12-.38-.02-.9.47-1.57.48-.66,1.29-1.38,2.38-2.12,2.18-1.47,5.41-2.93,9.17-4.02ZM14.4,31.26c-3.9.18-7.28.83-9.6,1.72-1.16.45-2.02.94-2.55,1.45-.54.52-.67.98-.56,1.36.1.38.48.83,1.28,1.28.79.45,1.9.86,3.27,1.19,2.73.66,6.38.99,10.28.81,3.9-.18,7.28-.83,9.6-1.72,1.16-.45,2.02-.94,2.55-1.45.54-.52.67-.98.56-1.36s-.48-.82-1.28-1.28c-.79-.45-1.9-.85-3.27-1.19-2.73-.66-6.38-.99-10.28-.81Z" fill="#ff5f83" stroke="#9fd5ff"/>
    <path d="m58.02,16.48c3.1-2.29,6.22-3.95,8.74-4.79,1.26-.42,2.35-.63,3.19-.63.85,0,1.36.22,1.63.55s.36.85.16,1.63c-.2.78-.68,1.72-1.42,2.78-1.48,2.11-3.94,4.57-7.04,6.85s-6.22,3.95-8.74,4.8c-1.26.42-2.35.63-3.19.63-.85,0-1.37-.22-1.63-.55-.27-.32-.36-.85-.16-1.63.2-.78.68-1.72,1.42-2.78,1.48-2.11,3.94-4.57,7.04-6.85h0Zm-41.65,7.32c-4-1.12-7.67-1.66-10.36-1.65-1.35,0-2.43.16-3.17.43-.77.28-1.06.63-1.1.95-.04.32.13.8.76,1.47.62.65,1.57,1.37,2.82,2.1,2.49,1.47,6.03,2.94,10.03,4.06,4,1.12,7.67,1.66,10.36,1.65,1.35,0,2.43-.16,3.17-.43.77-.28,1.06-.63,1.1-.95.05-.32-.13-.8-.76-1.47-.62-.65-1.57-1.37-2.82-2.1-2.49-1.47-6.03-2.94-10.03-4.06Zm29.47-10.76c1.27-3.52,2.92-6.52,4.54-8.53.81-1.01,1.6-1.74,2.3-2.17.71-.43,1.28-.52,1.7-.39.43.14.81.54,1.09,1.29.28.75.42,1.79.41,3.06-.02,2.53-.67,5.86-1.94,9.38-1.27,3.52-2.92,6.52-4.54,8.53-.81,1.01-1.6,1.74-2.31,2.17-.71.43-1.28.53-1.7.39-.43-.14-.81-.54-1.09-1.29-.28-.75-.42-1.79-.41-3.06.02-2.53.67-5.86,1.94-9.37Zm-20.76,3.83c-3.09-2.81-6.22-5.04-8.78-6.38-1.28-.67-2.39-1.1-3.27-1.27-.9-.18-1.39-.06-1.63.14-.24.21-.38.64-.19,1.45.18.78.63,1.78,1.36,2.94,1.44,2.31,3.87,5.15,6.96,7.97,3.09,2.81,6.22,5.04,8.78,6.38,1.28.67,2.39,1.1,3.26,1.27.9.18,1.39.07,1.63-.14s.38-.64.19-1.45c-.18-.78-.63-1.78-1.36-2.94-1.44-2.31-3.87-5.15-6.96-7.97Z" fill="#ff5f83" stroke="#9fd5ff"/>
    <path d="m36.02,14.68c-.54-3.68-.51-7.07-.02-9.55.24-1.24.59-2.24,1.02-2.93.43-.69.89-1.02,1.33-1.08.45-.06.98.13,1.6.69.61.55,1.23,1.42,1.83,2.55,1.19,2.26,2.2,5.51,2.75,9.19s.51,7.07.02,9.55c-.24,1.25-.59,2.24-1.02,2.93-.43.69-.89,1.02-1.33,1.08-.45.06-.99-.13-1.6-.69-.61-.55-1.23-1.41-1.83-2.55-1.19-2.26-2.2-5.51-2.75-9.19Zm-1.37.58c-1.58-3.53-3.5-6.6-5.31-8.71-.91-1.06-1.77-1.86-2.53-2.35-.77-.5-1.34-.64-1.74-.56-.4.08-.76.41-.99,1.11-.23.69-.29,1.68-.18,2.9.22,2.44,1.14,5.71,2.72,9.23,1.58,3.52,3.5,6.6,5.31,8.71.91,1.06,1.77,1.86,2.53,2.35.77.5,1.34.64,1.74.56.4-.08.76-.41.99-1.11.23-.69.29-1.68.18-2.9-.22-2.43-1.14-5.71-2.72-9.23h0Z" fill="#ff5f83" stroke="#9fd5ff"/>
  </g>
  <ellipse cx="42" cy="36.5" rx="13" ry="13.5" fill="#004aaa" stroke-width="0"/>
</svg>