<svg xmlns="http://www.w3.org/2000/svg" width="724" height="129" fill="none" viewBox="0 0 724 129">
  <path fill="#91E4A6" fill-rule="evenodd" d="M313.864.399c84.439 2.35 112.183 19.808 181.649 27.905 69.807 8.137 191.193 6.21 222.243 19.175 30.775 12.85-60.928 24.688-85.604 37.877-25.492 13.624 11.069 32.27-60.988 40.471-72.226 8.221-170.172-1.854-257.3-4.243-69.824-1.915-151.743-.066-200.768-8.316-47.832-8.05-19.187-21.345-38.977-32.032C55.081 70.956-.995 62.93.013 52.201c1.213-12.896 24.306-26.236 80.17-35.457C141.028 6.701 228.108-1.988 313.864.4Z" clip-rule="evenodd" opacity=".4"/>
</svg>
