<svg xmlns="http://www.w3.org/2000/svg" width="853" height="921" fill="none" viewBox="0 0 853 921">
  <path fill="#D8D8D8" fill-rule="evenodd" d="M441.627 8.034C553.938 37.43 620.85 22.05 699.047 92.828c53.734 48.636 91.732 203.457 126.015 262.257 36.339 62.325 35.263 167.106 8.112 232.348-27.037 64.967-174.783 147.859-230.598 199.819-78.028 72.639-41.304 138.857-160.949 133.437-122.342-5.543-307.919-41.408-380.387-120.323-45.66-49.722 41.311-242.093 0-294.184C2.298 431.859-2.467 363.444.758 275.505c3.394-92.548 20.043-126.052 111.768-182.677C206.011 35.115 329.344-21.355 441.627 8.034Z" clip-rule="evenodd" opacity=".4"/>
</svg>
